<?xml version="1.0" encoding="UTF-8" standalone="no"?>
<!DOCTYPE svg PUBLIC "-//W3C//DTD SVG 1.1//EN"
 "http://www.w3.org/Graphics/SVG/1.1/DTD/svg11.dtd">
<!-- Generated by graphviz version 14.1.2 (20260124.0452)
 -->
<!-- Pages: 1 -->
<svg width="644pt" height="796pt"
 viewBox="0.00 0.00 644.00 796.00" xmlns="http://www.w3.org/2000/svg" xmlns:xlink="http://www.w3.org/1999/xlink">
<g id="graph0" class="graph" transform="scale(1 1) rotate(0) translate(4 792)">
<polygon fill="white" stroke="none" points="-4,4 -4,-792 640,-792 640,4 -4,4"/>
<!-- R -->
<g id="node1" class="node">
<title>R</title>
<polygon fill="azure" stroke="black" stroke-width="0.1" points="244.75,-518 0,-518 0,-482 244.75,-482 244.75,-518"/>
<text xml:space="preserve" text-anchor="start" x="8" y="-493.4" font-family="Times,serif" font-size="18.00" fill="blue">Special Cases of Ordinal CPMs</text>
</g>
<!-- n1 -->
<g id="node2" class="node">
<title>n1</title>
<polygon fill="azure" stroke="black" stroke-width="0.1" points="373.25,-734 307.75,-734 307.75,-698 373.25,-698 373.25,-734"/>
<text xml:space="preserve" text-anchor="start" x="315.75" y="-709.4" font-family="Times,serif" font-size="18.00" fill="blue">Binary</text>
</g>
<!-- R&#45;&gt;n1 -->
<g id="edge1" class="edge">
<title>R&#45;&gt;n1</title>
<path fill="none" stroke="#0000cd" d="M141.43,-518.04C180.38,-556.97 272.3,-648.83 315.84,-692.35"/>
<polygon fill="#0000cd" stroke="#0000cd" points="313.89,-693.87 320.58,-697.09 317.36,-690.41 313.89,-693.87"/>
</g>
<!-- n2 -->
<g id="node5" class="node">
<title>n2</title>
<polygon fill="azure" stroke="black" stroke-width="0.1" points="376.25,-572 304.75,-572 304.75,-536 376.25,-536 376.25,-572"/>
<text xml:space="preserve" text-anchor="start" x="312.75" y="-547.4" font-family="Times,serif" font-size="18.00" fill="blue">Ordinal</text>
</g>
<!-- R&#45;&gt;n2 -->
<g id="edge2" class="edge">
<title>R&#45;&gt;n2</title>
<path fill="none" stroke="#0000cd" d="M195.34,-517.98C228.87,-526.36 267.64,-536.04 296.52,-543.26"/>
<polygon fill="#0000cd" stroke="#0000cd" points="295.91,-545.64 303.3,-544.96 297.1,-540.88 295.91,-545.64"/>
</g>
<!-- n3 -->
<g id="node10" class="node">
<title>n3</title>
<polygon fill="azure" stroke="black" stroke-width="0.1" points="388.25,-437 292.75,-437 292.75,-401 388.25,-401 388.25,-437"/>
<text xml:space="preserve" text-anchor="start" x="300.75" y="-412.4" font-family="Times,serif" font-size="18.00" fill="blue">Parametric</text>
</g>
<!-- R&#45;&gt;n3 -->
<g id="edge3" class="edge">
<title>R&#45;&gt;n3</title>
<path fill="none" stroke="#0000cd" d="M171.34,-482.02C204.98,-469.41 250.02,-452.53 285.02,-439.42"/>
<polygon fill="#0000cd" stroke="#0000cd" points="285.67,-441.79 291.37,-437.04 283.95,-437.2 285.67,-441.79"/>
</g>
<!-- n4 -->
<g id="node14" class="node">
<title>n4</title>
<polygon fill="azure" stroke="black" stroke-width="0.1" points="400.25,-194 280.75,-194 280.75,-158 400.25,-158 400.25,-194"/>
<text xml:space="preserve" text-anchor="start" x="288.75" y="-169.4" font-family="Times,serif" font-size="18.00" fill="blue">Time&#45;to&#45;event</text>
</g>
<!-- R&#45;&gt;n4 -->
<g id="edge4" class="edge">
<title>R&#45;&gt;n4</title>
<path fill="none" stroke="#0000cd" d="M135.3,-482.12C171.69,-427.57 281.32,-263.23 323.09,-200.6"/>
<polygon fill="#0000cd" stroke="#0000cd" points="324.92,-202.27 326.77,-195.09 320.85,-199.55 324.92,-202.27"/>
</g>
<!-- n11 -->
<g id="node3" class="node">
<title>n11</title>
<polygon fill="azure" stroke="black" stroke-width="0.1" points="636,-788 436.25,-788 436.25,-752 636,-752 636,-788"/>
<text xml:space="preserve" text-anchor="start" x="444.25" y="-763.4" font-family="Times,serif" font-size="18.00" fill="blue">binary logistic regression</text>
</g>
<!-- n1&#45;&gt;n11 -->
<g id="edge5" class="edge">
<title>n1&#45;&gt;n11</title>
<path fill="none" stroke="#0000cd" d="M373.06,-725.09C391.47,-730.37 415.16,-737.12 436.25,-743 444.24,-745.23 452.59,-747.54 460.92,-749.83"/>
<polygon fill="#0000cd" stroke="#0000cd" points="460.02,-752.13 467.42,-751.62 461.32,-747.4 460.02,-752.13"/>
</g>
<!-- n12 -->
<g id="node4" class="node">
<title>n12</title>
<polygon fill="azure" stroke="black" stroke-width="0.1" points="596.62,-734 475.62,-734 475.62,-698 596.62,-698 596.62,-734"/>
<text xml:space="preserve" text-anchor="start" x="483.62" y="-709.4" font-family="Times,serif" font-size="18.00" fill="blue">Pearson χ² test</text>
</g>
<!-- n1&#45;&gt;n12 -->
<g id="edge6" class="edge">
<title>n1&#45;&gt;n12</title>
<path fill="none" stroke="#0000cd" d="M373.04,-716C398.52,-716 435.28,-716 467.36,-716"/>
<polygon fill="#0000cd" stroke="#0000cd" points="467.32,-718.45 474.32,-716 467.32,-713.55 467.32,-718.45"/>
</g>
<!-- n21 -->
<g id="node6" class="node">
<title>n21</title>
<polygon fill="azure" stroke="black" stroke-width="0.1" points="633.38,-680 438.88,-680 438.88,-644 633.38,-644 633.38,-680"/>
<text xml:space="preserve" text-anchor="start" x="446.88" y="-655.4" font-family="Times,serif" font-size="18.00" fill="blue">proportional odds model</text>
</g>
<!-- n2&#45;&gt;n21 -->
<g id="edge7" class="edge">
<title>n2&#45;&gt;n21</title>
<path fill="none" stroke="#0000cd" d="M357.59,-571.77C375.19,-590.17 405.07,-618.49 436.25,-635 440.23,-637.11 444.39,-639.06 448.66,-640.87"/>
<polygon fill="#0000cd" stroke="#0000cd" points="447.62,-643.1 455.03,-643.42 449.44,-638.55 447.62,-643.1"/>
</g>
<!-- n22 -->
<g id="node7" class="node">
<title>n22</title>
<polygon fill="azure" stroke="black" stroke-width="0.1" points="594.38,-626 477.88,-626 477.88,-590 594.38,-590 594.38,-626"/>
<text xml:space="preserve" text-anchor="start" x="485.88" y="-601.4" font-family="Times,serif" font-size="18.00" fill="blue">Wilcoxon test</text>
</g>
<!-- n2&#45;&gt;n22 -->
<g id="edge8" class="edge">
<title>n2&#45;&gt;n22</title>
<path fill="none" stroke="#0000cd" d="M376.13,-563.97C394.06,-569.1 416.31,-575.44 436.25,-581 447.08,-584.02 458.58,-587.19 469.77,-590.26"/>
<polygon fill="#0000cd" stroke="#0000cd" points="468.99,-592.59 476.38,-592.07 470.28,-587.86 468.99,-592.59"/>
</g>
<!-- n23 -->
<g id="node8" class="node">
<title>n23</title>
<polygon fill="azure" stroke="black" stroke-width="0.1" points="614.62,-572 457.62,-572 457.62,-536 614.62,-536 614.62,-572"/>
<text xml:space="preserve" text-anchor="start" x="465.62" y="-547.4" font-family="Times,serif" font-size="18.00" fill="blue">rank difference test</text>
</g>
<!-- n2&#45;&gt;n23 -->
<g id="edge9" class="edge">
<title>n2&#45;&gt;n23</title>
<path fill="none" stroke="#0000cd" d="M376.12,-554C396.63,-554 423.61,-554 449.5,-554"/>
<polygon fill="#0000cd" stroke="#0000cd" points="449.34,-556.45 456.34,-554 449.34,-551.55 449.34,-556.45"/>
</g>
<!-- n24 -->
<g id="node9" class="node">
<title>n24</title>
<polygon fill="azure" stroke="black" stroke-width="0.1" points="613.88,-518 458.38,-518 458.38,-482 613.88,-482 613.88,-518"/>
<text xml:space="preserve" text-anchor="start" x="466.38" y="-493.4" font-family="Times,serif" font-size="18.00" fill="blue">Kruskal&#45;Wallis test</text>
</g>
<!-- n2&#45;&gt;n24 -->
<g id="edge10" class="edge">
<title>n2&#45;&gt;n24</title>
<path fill="none" stroke="#0000cd" d="M376.13,-544.03C394.06,-538.9 416.31,-532.56 436.25,-527 444.24,-524.77 452.59,-522.46 460.92,-520.17"/>
<polygon fill="#0000cd" stroke="#0000cd" points="461.32,-522.6 467.42,-518.38 460.02,-517.87 461.32,-522.6"/>
</g>
<!-- n31 -->
<g id="node11" class="node">
<title>n31</title>
<polygon fill="azure" stroke="black" stroke-width="0.1" points="590.25,-464 482,-464 482,-428 590.25,-428 590.25,-464"/>
<text xml:space="preserve" text-anchor="start" x="490" y="-439.4" font-family="Times,serif" font-size="18.00" fill="blue">linear model</text>
</g>
<!-- n3&#45;&gt;n31 -->
<g id="edge11" class="edge">
<title>n3&#45;&gt;n31</title>
<path fill="none" stroke="#0000cd" d="M387.88,-425.47C413.74,-429.07 446.27,-433.61 474.17,-437.5"/>
<polygon fill="#0000cd" stroke="#0000cd" points="473.52,-439.88 480.79,-438.42 474.19,-435.03 473.52,-439.88"/>
</g>
<!-- n32 -->
<g id="node12" class="node">
<title>n32</title>
<polygon fill="azure" stroke="black" stroke-width="0.1" points="563.12,-410 509.12,-410 509.12,-374 563.12,-374 563.12,-410"/>
<text xml:space="preserve" text-anchor="start" x="517.75" y="-385.4" font-family="Times,serif" font-size="18.00" fill="blue">t&#45;test</text>
</g>
<!-- n3&#45;&gt;n32 -->
<g id="edge12" class="edge">
<title>n3&#45;&gt;n32</title>
<path fill="none" stroke="#0000cd" d="M387.88,-412.53C422.8,-407.66 469.86,-401.1 501.29,-396.72"/>
<polygon fill="#0000cd" stroke="#0000cd" points="501.22,-399.2 507.82,-395.81 500.55,-394.35 501.22,-399.2"/>
</g>
<!-- n33 -->
<g id="node13" class="node">
<title>n33</title>
<polygon fill="azure" stroke="black" stroke-width="0.1" points="575.25,-356 497,-356 497,-320 575.25,-320 575.25,-356"/>
<text xml:space="preserve" text-anchor="start" x="505" y="-331.4" font-family="Times,serif" font-size="18.00" fill="blue">ANOVA</text>
</g>
<!-- n3&#45;&gt;n33 -->
<g id="edge13" class="edge">
<title>n3&#45;&gt;n33</title>
<path fill="none" stroke="#0000cd" d="M368.76,-401.02C387.2,-389.47 412.46,-374.84 436.25,-365 453.07,-358.04 472.22,-352.34 489.17,-347.99"/>
<polygon fill="#0000cd" stroke="#0000cd" points="489.62,-350.4 495.82,-346.33 488.44,-345.65 489.62,-350.4"/>
</g>
<!-- n41 -->
<g id="node15" class="node">
<title>n41</title>
<polygon fill="azure" stroke="black" stroke-width="0.1" points="631.5,-302 440.75,-302 440.75,-266 631.5,-266 631.5,-302"/>
<text xml:space="preserve" text-anchor="start" x="448.75" y="-277.4" font-family="Times,serif" font-size="18.00" fill="blue">Kaplan&#45;Meier estimator</text>
</g>
<!-- n4&#45;&gt;n41 -->
<g id="edge14" class="edge">
<title>n4&#45;&gt;n41</title>
<path fill="none" stroke="#0000cd" d="M357.59,-193.77C375.19,-212.17 405.07,-240.49 436.25,-257 440.23,-259.11 444.39,-261.06 448.66,-262.87"/>
<polygon fill="#0000cd" stroke="#0000cd" points="447.62,-265.1 455.03,-265.42 449.44,-260.55 447.62,-265.1"/>
</g>
<!-- n42 -->
<g id="node16" class="node">
<title>n42</title>
<polygon fill="azure" stroke="black" stroke-width="0.1" points="630.75,-247.5 441.5,-247.5 441.5,-176.5 630.75,-176.5 630.75,-247.5"/>
<text xml:space="preserve" text-anchor="start" x="449.5" y="-226.4" font-family="Times,serif" font-size="18.00" fill="blue">Turnbull nonparametric</text>
<text xml:space="preserve" text-anchor="start" x="461.12" y="-205.4" font-family="Times,serif" font-size="18.00" fill="blue">survival estimate for</text>
<text xml:space="preserve" text-anchor="start" x="455.12" y="-184.4" font-family="Times,serif" font-size="18.00" fill="blue">interval&#45;censored data</text>
</g>
<!-- n4&#45;&gt;n42 -->
<g id="edge15" class="edge">
<title>n4&#45;&gt;n42</title>
<path fill="none" stroke="#0000cd" d="M400.12,-186.9C410.69,-188.86 421.98,-190.96 433.36,-193.08"/>
<polygon fill="#0000cd" stroke="#0000cd" points="432.84,-195.47 440.17,-194.35 433.74,-190.66 432.84,-195.47"/>
</g>
<!-- n43 -->
<g id="node17" class="node">
<title>n43</title>
<polygon fill="azure" stroke="black" stroke-width="0.1" points="586.88,-158 485.38,-158 485.38,-122 586.88,-122 586.88,-158"/>
<text xml:space="preserve" text-anchor="start" x="493.38" y="-133.4" font-family="Times,serif" font-size="18.00" fill="blue">logrank test</text>
</g>
<!-- n4&#45;&gt;n43 -->
<g id="edge16" class="edge">
<title>n4&#45;&gt;n43</title>
<path fill="none" stroke="#0000cd" d="M400.12,-165.1C424.62,-160.55 453.01,-155.27 477.41,-150.73"/>
<polygon fill="#0000cd" stroke="#0000cd" points="477.6,-153.19 484.03,-149.5 476.7,-148.37 477.6,-153.19"/>
</g>
<!-- n44 -->
<g id="node18" class="node">
<title>n44</title>
<polygon fill="azure" stroke="black" stroke-width="0.1" points="597.75,-104 474.5,-104 474.5,-68 597.75,-68 597.75,-104"/>
<text xml:space="preserve" text-anchor="start" x="482.5" y="-79.4" font-family="Times,serif" font-size="18.00" fill="blue">Cox PH model</text>
</g>
<!-- n4&#45;&gt;n44 -->
<g id="edge17" class="edge">
<title>n4&#45;&gt;n44</title>
<path fill="none" stroke="#0000cd" d="M364.03,-158C382.5,-144.01 409.82,-125.02 436.25,-113 445.87,-108.63 456.34,-104.83 466.76,-101.58"/>
<polygon fill="#0000cd" stroke="#0000cd" points="467.25,-103.99 473.25,-99.63 465.84,-99.3 467.25,-103.99"/>
</g>
<!-- n45 -->
<g id="node19" class="node">
<title>n45</title>
<polygon fill="azure" stroke="black" stroke-width="0.1" points="630.75,-50 441.5,-50 441.5,0 630.75,0 630.75,-50"/>
<text xml:space="preserve" text-anchor="start" x="449.5" y="-28.9" font-family="Times,serif" font-size="18.00" fill="blue">accelerated failure time</text>
<text xml:space="preserve" text-anchor="start" x="509.88" y="-7.9" font-family="Times,serif" font-size="18.00" fill="blue">models</text>
</g>
<!-- n4&#45;&gt;n45 -->
<g id="edge18" class="edge">
<title>n4&#45;&gt;n45</title>
<path fill="none" stroke="#0000cd" d="M351.4,-158.32C366.52,-132.86 397.7,-85.98 436.25,-59 438.78,-57.23 441.41,-55.55 444.11,-53.94"/>
<polygon fill="#0000cd" stroke="#0000cd" points="445.17,-56.16 450.11,-50.62 442.79,-51.87 445.17,-56.16"/>
</g>
</g>
</svg>
